<?xml version="1.0" encoding="UTF-8" standalone="no"?><svg xmlns="http://www.w3.org/2000/svg" xmlns:xlink="http://www.w3.org/1999/xlink" contentScriptType="application/ecmascript" contentStyleType="text/css" height="549px" preserveAspectRatio="none" style="width:323px;height:549px;" version="1.1" viewBox="0 0 323 549" width="323px" zoomAndPan="magnify"><defs><filter height="300%" id="f14z4gpn70ceex" width="300%" x="-1" y="-1"><feGaussianBlur result="blurOut" stdDeviation="2.0"/><feColorMatrix in="blurOut" result="blurOut2" type="matrix" values="0 0 0 0 0 0 0 0 0 0 0 0 0 0 0 0 0 0 .4 0"/><feOffset dx="4.0" dy="4.0" in="blurOut2" result="blurOut3"/><feBlend in="SourceGraphic" in2="blurOut3" mode="normal"/></filter></defs><g><text fill="#000000" font-family="sans-serif" font-size="18" lengthAdjust="spacingAndGlyphs" textLength="314" x="2" y="19.2419">Catalog Models Association Diagram</text><!--MD5=[44a1b4afaef76c16e6c9ec4990ad0c8d]
class Item--><rect codeLine="6" fill="#F8F8F8" filter="url(#f14z4gpn70ceex)" height="107.9276" id="Item" style="stroke: #383838; stroke-width: 1.5;" width="166" x="65.5" y="31.5158"/><ellipse cx="131.25" cy="47.5158" fill="#C2C2C2" rx="11" ry="11" style="stroke: #383838; stroke-width: 1.0;"/><path d="M130.9375,43.844 Q129.4531,43.844 128.6719,44.9533 Q127.8906,46.0627 127.8906,47.9846 Q127.8906,49.9221 128.6094,50.9846 Q129.3281,52.0471 130.9375,52.0471 Q131.6719,52.0471 132.4063,51.8752 Q133.1563,51.7033 134.0313,51.3908 L134.0313,53.5627 Q133.2188,53.8752 132.4375,54.0315 Q131.6563,54.1877 130.6875,54.1877 Q128.8281,54.1877 127.6094,53.4221 Q126.3906,52.6408 125.8125,51.2346 Q125.2344,49.8283 125.2344,47.969 Q125.2344,46.1252 125.8906,44.719 Q126.5625,43.3127 127.8281,42.5158 Q129.0938,41.7033 130.9375,41.7033 Q131.8281,41.7033 132.7344,41.9377 Q133.6563,42.1721 134.4844,42.5627 L133.6563,44.6565 Q132.9688,44.3283 132.2813,44.094 Q131.5938,43.844 130.9375,43.844 Z "/><text fill="#000000" font-family="sans-serif" font-size="12" lengthAdjust="spacingAndGlyphs" textLength="26" x="151.75" y="52.1719">Item</text><line style="stroke: #383838; stroke-width: 1.5;" x1="66.5" x2="230.5" y1="63.5158" y2="63.5158"/><ellipse cx="76.5" cy="74.5158" fill="none" rx="3" ry="3" style="stroke: #545454; stroke-width: 1.0;"/><text fill="#000000" font-family="sans-serif" font-size="11" lengthAdjust="spacingAndGlyphs" textLength="57" x="85.5" y="79.2748">title: string</text><ellipse cx="76.5" cy="89.4977" fill="none" rx="3" ry="3" style="stroke: #545454; stroke-width: 1.0;"/><text fill="#000000" font-family="sans-serif" font-size="11" lengthAdjust="spacingAndGlyphs" textLength="96" x="85.5" y="94.2566">description: string</text><ellipse cx="76.5" cy="104.4796" fill="none" rx="3" ry="3" style="stroke: #545454; stroke-width: 1.0;"/><text fill="#000000" font-family="sans-serif" font-size="11" lengthAdjust="spacingAndGlyphs" textLength="140" x="85.5" y="109.2385">price_level: PriceLevel[1..*]</text><line style="stroke: #383838; stroke-width: 1.5;" x1="66.5" x2="230.5" y1="116.4615" y2="116.4615"/><ellipse cx="76.5" cy="127.4615" fill="#A6A6A6" rx="3" ry="3" style="stroke: #545454; stroke-width: 1.0;"/><text fill="#000000" font-family="sans-serif" font-size="11" lengthAdjust="spacingAndGlyphs" textLength="40" x="85.5" y="132.2204">__str__()</text><!--MD5=[f375b3d0fae4d15774812e930c824519]
class Genre--><rect codeLine="13" fill="#F8F8F8" filter="url(#f14z4gpn70ceex)" height="77.9638" id="Genre" style="stroke: #383838; stroke-width: 1.5;" width="92" x="25.5" y="244.5158"/><ellipse cx="51.75" cy="260.5158" fill="#C2C2C2" rx="11" ry="11" style="stroke: #383838; stroke-width: 1.0;"/><path d="M51.4375,256.844 Q49.9531,256.844 49.1719,257.9533 Q48.3906,259.0627 48.3906,260.9846 Q48.3906,262.9221 49.1094,263.9846 Q49.8281,265.0471 51.4375,265.0471 Q52.1719,265.0471 52.9063,264.8752 Q53.6563,264.7033 54.5313,264.3908 L54.5313,266.5627 Q53.7188,266.8752 52.9375,267.0315 Q52.1563,267.1877 51.1875,267.1877 Q49.3281,267.1877 48.1094,266.4221 Q46.8906,265.6408 46.3125,264.2346 Q45.7344,262.8283 45.7344,260.969 Q45.7344,259.1252 46.3906,257.719 Q47.0625,256.3127 48.3281,255.5158 Q49.5938,254.7033 51.4375,254.7033 Q52.3281,254.7033 53.2344,254.9377 Q54.1563,255.1721 54.9844,255.5627 L54.1563,257.6565 Q53.4688,257.3283 52.7813,257.094 Q52.0938,256.844 51.4375,256.844 Z "/><text fill="#000000" font-family="sans-serif" font-size="12" lengthAdjust="spacingAndGlyphs" textLength="35" x="68.25" y="265.1719">Genre</text><line style="stroke: #383838; stroke-width: 1.5;" x1="26.5" x2="116.5" y1="276.5158" y2="276.5158"/><ellipse cx="36.5" cy="287.5158" fill="none" rx="3" ry="3" style="stroke: #545454; stroke-width: 1.0;"/><text fill="#000000" font-family="sans-serif" font-size="11" lengthAdjust="spacingAndGlyphs" textLength="66" x="45.5" y="292.2748">name: string</text><line style="stroke: #383838; stroke-width: 1.5;" x1="26.5" x2="116.5" y1="299.4977" y2="299.4977"/><ellipse cx="36.5" cy="310.4977" fill="#A6A6A6" rx="3" ry="3" style="stroke: #545454; stroke-width: 1.0;"/><text fill="#000000" font-family="sans-serif" font-size="11" lengthAdjust="spacingAndGlyphs" textLength="40" x="45.5" y="315.2566">__str__()</text><!--MD5=[4f1f3706c1a355a8488e154afcaed5df]
class Location--><rect codeLine="18" fill="#F8F8F8" filter="url(#f14z4gpn70ceex)" height="107.9276" id="Location" style="stroke: #383838; stroke-width: 1.5;" width="122" x="164.5" y="427.5158"/><ellipse cx="198.85" cy="443.5158" fill="#C2C2C2" rx="11" ry="11" style="stroke: #383838; stroke-width: 1.0;"/><path d="M198.5375,439.844 Q197.0531,439.844 196.2719,440.9533 Q195.4906,442.0627 195.4906,443.9846 Q195.4906,445.9221 196.2094,446.9846 Q196.9281,448.0471 198.5375,448.0471 Q199.2719,448.0471 200.0063,447.8752 Q200.7563,447.7033 201.6313,447.3908 L201.6313,449.5627 Q200.8188,449.8752 200.0375,450.0315 Q199.2563,450.1877 198.2875,450.1877 Q196.4281,450.1877 195.2094,449.4221 Q193.9906,448.6408 193.4125,447.2346 Q192.8344,445.8283 192.8344,443.969 Q192.8344,442.1252 193.4906,440.719 Q194.1625,439.3127 195.4281,438.5158 Q196.6938,437.7033 198.5375,437.7033 Q199.4281,437.7033 200.3344,437.9377 Q201.2563,438.1721 202.0844,438.5627 L201.2563,440.6565 Q200.5688,440.3283 199.8813,440.094 Q199.1938,439.844 198.5375,439.844 Z "/><text fill="#000000" font-family="sans-serif" font-size="12" lengthAdjust="spacingAndGlyphs" textLength="47" x="217.15" y="448.1719">Location</text><line style="stroke: #383838; stroke-width: 1.5;" x1="165.5" x2="285.5" y1="459.5158" y2="459.5158"/><ellipse cx="175.5" cy="470.5158" fill="none" rx="3" ry="3" style="stroke: #545454; stroke-width: 1.0;"/><text fill="#000000" font-family="sans-serif" font-size="11" lengthAdjust="spacingAndGlyphs" textLength="77" x="184.5" y="475.2748">general: string</text><ellipse cx="175.5" cy="485.4977" fill="none" rx="3" ry="3" style="stroke: #545454; stroke-width: 1.0;"/><text fill="#000000" font-family="sans-serif" font-size="11" lengthAdjust="spacingAndGlyphs" textLength="96" x="184.5" y="490.2566">description: string</text><ellipse cx="175.5" cy="500.4796" fill="none" rx="3" ry="3" style="stroke: #545454; stroke-width: 1.0;"/><text fill="#000000" font-family="sans-serif" font-size="11" lengthAdjust="spacingAndGlyphs" textLength="89" x="184.5" y="505.2385">items: Items[1..*]</text><line style="stroke: #383838; stroke-width: 1.5;" x1="165.5" x2="285.5" y1="512.4615" y2="512.4615"/><ellipse cx="175.5" cy="523.4615" fill="#A6A6A6" rx="3" ry="3" style="stroke: #545454; stroke-width: 1.0;"/><text fill="#000000" font-family="sans-serif" font-size="11" lengthAdjust="spacingAndGlyphs" textLength="40" x="184.5" y="528.2204">__str__()</text><!--MD5=[ac6b9fe146c2ed39c6be9fce945f4fb9]
class ItemInstance--><rect codeLine="25" fill="#F8F8F8" filter="url(#f14z4gpn70ceex)" height="167.8551" id="ItemInstance" style="stroke: #383838; stroke-width: 1.5;" width="146" x="152.5" y="199.5158"/><ellipse cx="185.5" cy="215.5158" fill="#C2C2C2" rx="11" ry="11" style="stroke: #383838; stroke-width: 1.0;"/><path d="M185.1875,211.844 Q183.7031,211.844 182.9219,212.9533 Q182.1406,214.0627 182.1406,215.9846 Q182.1406,217.9221 182.8594,218.9846 Q183.5781,220.0471 185.1875,220.0471 Q185.9219,220.0471 186.6563,219.8752 Q187.4063,219.7033 188.2813,219.3908 L188.2813,221.5627 Q187.4688,221.8752 186.6875,222.0315 Q185.9063,222.1877 184.9375,222.1877 Q183.0781,222.1877 181.8594,221.4221 Q180.6406,220.6408 180.0625,219.2346 Q179.4844,217.8283 179.4844,215.969 Q179.4844,214.1252 180.1406,212.719 Q180.8125,211.3127 182.0781,210.5158 Q183.3438,209.7033 185.1875,209.7033 Q186.0781,209.7033 186.9844,209.9377 Q187.9063,210.1721 188.7344,210.5627 L187.9063,212.6565 Q187.2188,212.3283 186.5313,212.094 Q185.8438,211.844 185.1875,211.844 Z "/><text fill="#000000" font-family="sans-serif" font-size="12" lengthAdjust="spacingAndGlyphs" textLength="74" x="203.5" y="220.1719">ItemInstance</text><line style="stroke: #383838; stroke-width: 1.5;" x1="153.5" x2="297.5" y1="231.5158" y2="231.5158"/><ellipse cx="163.5" cy="242.5158" fill="none" rx="3" ry="3" style="stroke: #545454; stroke-width: 1.0;"/><text fill="#000000" font-family="sans-serif" font-size="11" lengthAdjust="spacingAndGlyphs" textLength="89" x="172.5" y="247.2748">unique_id: string</text><ellipse cx="163.5" cy="257.4977" fill="none" rx="3" ry="3" style="stroke: #545454; stroke-width: 1.0;"/><text fill="#000000" font-family="sans-serif" font-size="11" lengthAdjust="spacingAndGlyphs" textLength="119" x="172.5" y="262.2566">location: Location[1..*]</text><ellipse cx="163.5" cy="272.4796" fill="none" rx="3" ry="3" style="stroke: #545454; stroke-width: 1.0;"/><text fill="#000000" font-family="sans-serif" font-size="11" lengthAdjust="spacingAndGlyphs" textLength="105" x="172.5" y="277.2385">acquisition_date: int</text><ellipse cx="163.5" cy="287.4615" fill="none" rx="3" ry="3" style="stroke: #545454; stroke-width: 1.0;"/><text fill="#000000" font-family="sans-serif" font-size="11" lengthAdjust="spacingAndGlyphs" textLength="120" x="172.5" y="292.2204">dispossession_date: int</text><ellipse cx="163.5" cy="302.4434" fill="none" rx="3" ry="3" style="stroke: #545454; stroke-width: 1.0;"/><text fill="#000000" font-family="sans-serif" font-size="11" lengthAdjust="spacingAndGlyphs" textLength="67" x="172.5" y="307.2023">item: Item[1]</text><ellipse cx="163.5" cy="317.4253" fill="none" rx="3" ry="3" style="stroke: #545454; stroke-width: 1.0;"/><text fill="#000000" font-family="sans-serif" font-size="11" lengthAdjust="spacingAndGlyphs" textLength="107" x="172.5" y="322.1842">location: Location[1]</text><ellipse cx="163.5" cy="332.4072" fill="none" rx="3" ry="3" style="stroke: #545454; stroke-width: 1.0;"/><text fill="#000000" font-family="sans-serif" font-size="11" lengthAdjust="spacingAndGlyphs" textLength="56" x="172.5" y="337.1661">price: float</text><line style="stroke: #383838; stroke-width: 1.5;" x1="153.5" x2="297.5" y1="344.3891" y2="344.3891"/><ellipse cx="163.5" cy="355.3891" fill="#A6A6A6" rx="3" ry="3" style="stroke: #545454; stroke-width: 1.0;"/><text fill="#000000" font-family="sans-serif" font-size="11" lengthAdjust="spacingAndGlyphs" textLength="40" x="172.5" y="360.148">__str__()</text><!--MD5=[cbb6706b291d3a7958d17b12e7c1a178]
link Item to Genre--><path codeLine="36" d="M127.4594,139.6202 C114.5909,172.7108 98.4206,214.2914 86.776,244.2347 " fill="none" id="Item-Genre" style="stroke: #383838; stroke-width: 1.0;"/><text fill="#000000" font-family="sans-serif" font-size="13" lengthAdjust="spacingAndGlyphs" textLength="20" x="90.9451" y="161.1946">1..*</text><text fill="#000000" font-family="sans-serif" font-size="13" lengthAdjust="spacingAndGlyphs" textLength="20" x="67.7158" y="232.6869">1..*</text><!--MD5=[4c1914fdc8694cbbfcd163bf0815cbc9]
link Item to ItemInstance--><path codeLine="37" d="M169.5406,139.6202 C176.7096,158.0547 184.9033,179.1242 192.7683,199.3486 " fill="none" id="Item-ItemInstance" style="stroke: #383838; stroke-width: 1.0;"/><text fill="#000000" font-family="sans-serif" font-size="13" lengthAdjust="spacingAndGlyphs" textLength="7" x="164.6784" y="161.1946">1</text><text fill="#000000" font-family="sans-serif" font-size="13" lengthAdjust="spacingAndGlyphs" textLength="20" x="159.4141" y="187.7421">0..*</text><!--MD5=[a5f0f7ee319e28362735463a8ab69943]
link ItemInstance to Location--><path codeLine="38" d="M225.5,367.7727 C225.5,387.9817 225.5,409.0291 225.5,427.4441 " fill="none" id="ItemInstance-Location" style="stroke: #383838; stroke-width: 1.0;"/><text fill="#000000" font-family="sans-serif" font-size="13" lengthAdjust="spacingAndGlyphs" textLength="20" x="195.2992" y="389.3864">1..*</text><text fill="#000000" font-family="sans-serif" font-size="13" lengthAdjust="spacingAndGlyphs" textLength="7" x="214.7969" y="415.5967">1</text><!--MD5=[2895ed458db0fcc4ea6b6aecc29d1a99]
@startuml

title Catalog Models Association Diagram

skinparam monochrome true

class Item {
    {field} +title: string
    {field} +description: string
    {field} +price_level: PriceLevel[1..*]
    +__str__()
}

class Genre {
    {field} +name: string
    +__str__()
}

class Location {
    {field} +general: string
    {field} +description: string
    {field} +items: Items[1..*]
    +__str__()
}

class ItemInstance {
    {field} +unique_id: string
    {field} +location: Location[1..*]
    {field} +acquisition_date: int
    {field} +dispossession_date: int
    {field} +item: Item[1]
    {field} +location: Location[1]
    +price: float
    +__str__()
}

Item "1..*    " - - "1..*" Genre
Item "1" - - "0..*   " ItemInstance
ItemInstance "1..*   " - - "1 " Location

@enduml

PlantUML version 1.2020.18(Wed Sep 30 12:40:44 PDT 2020)
(GPL source distribution)
Java Runtime: OpenJDK Runtime Environment
JVM: OpenJDK 64-Bit Server VM
Default Encoding: UTF-8
Language: en
Country: US
--></g></svg>